# xmcd
#
# Track frame offsets:
#	150
#	24369
#	39856
#	57029
#	71749
#	87867
#	109397
#	127429
#	147357
#	162972
#	186463
#	203556
#
# Disc length: 2945 seconds
#
# Revision: 2
# Processed by: cddbd v1.5.2PL0 Copyright (c) Steve Scherf et al.
# Submitted via: audiograbber 1.83.01
#
DISCID=ac0b7f0c
DTITLE=Various Artist - Street Beats V04 S06 CD2
DYEAR=1900
DGENRE=R&B
TTITLE0=Mr Rrrider - Ladies Cru (Jess Jackson Mix)
TTITLE1=Clipse - When The Last Time
TTITLE2=Jaheim Ft Tha' Rayne - Fabulous
TTITLE3=Dani Stevenson Ft Missy Elliott - Honk Your Horn
TTITLE4=The Roots Ft Musiq - Break You Off
TTITLE5=Hush - Ghetto Mantra
TTITLE6=Jason Jermaine - Techno Soul
TTITLE7=Deborah Cox - Up and Down (Allstar Remix)
TTITLE8=Natalie Williams Ft Coco - Lazy Days
TTITLE9=Pointblank Ft Azure and Couture - Lady
TTITLE10=K-Rob - 2nite
TTITLE11=JC Lodge and Junior Kelly - Love You Like That (Someone Loves You Honey)
EXTD=
EXTT0=
EXTT1=
EXTT2=
EXTT3=
EXTT4=
EXTT5=
EXTT6=
EXTT7=
EXTT8=
EXTT9=
EXTT10=
EXTT11=
PLAYORDER=
